# xmcd CD database file
#
# Track frame offsets:
#	150
#	24207
#	44710
#	66420
#	94545
#	120195
#	139108
#	156808
#	176184
#	199737
#	220629
#
# Disc length: 3165 seconds
#
# Revision: 0
# Processed by: cddbd v1.5.2PL0 Copyright (c) Steve Scherf et al.
# Submitted via: CDex 2.00
#
DISCID=940c5b0b
DTITLE=Peter Lemer Trio - Lookin' for Soup
DYEAR=1999
DGENRE=Jazz
TTITLE0=Down to Business
TTITLE1=Throwing Stones
TTITLE2=Tal Tales
TTITLE3=Big Dick
TTITLE4=Lookin' for Soup
TTITLE5=Reuben
TTITLE6='nother Day 'nother Cholla
TTITLE7=San Francisco Holiday (T Monk)
TTITLE8=Yaakob
TTITLE9=Vaguely Cheerful
TTITLE10=Nightwatch (B Thompson)
EXTD=YEAR: 1999
EXTT0=
EXTT1=
EXTT2=
EXTT3=
EXTT4=
EXTT5=
EXTT6=
EXTT7=
EXTT8=
EXTT9=
EXTT10=
PLAYORDER=
